<?xml version="1.0" encoding="UTF-8"?>
<!--Generator: Apple Native CoreSVG 175.5-->
<!DOCTYPE svg
PUBLIC "-//W3C//DTD SVG 1.1//EN"
       "http://www.w3.org/Graphics/SVG/1.1/DTD/svg11.dtd">
<svg version="1.1" xmlns="http://www.w3.org/2000/svg" xmlns:xlink="http://www.w3.org/1999/xlink" width="3300" height="2200">
 <!--glyph: "uni1008CB.medium", point size: 100.0, font version: "18.0d12e2", template writer version: "101"-->
 <style>.monochrome-0 {fill:#000000}

.SFSymbolsPreview000000 {fill:#000000;opacity:1.0}
</style>
 <g id="Notes">
  <rect height="2200" id="artboard" style="fill:white;opacity:1" width="3300" x="0" y="0"/>
  <line style="fill:none;stroke:black;opacity:1;stroke-width:0.5;" x1="263" x2="3036" y1="292" y2="292"/>
  <text style="stroke:none;fill:black;font-family:sans-serif;font-size:13;font-weight:bold;" transform="matrix(1 0 0 1 263 322)">Weight/Scale Variations</text>
  <text style="stroke:none;fill:black;font-family:sans-serif;font-size:13;text-anchor:middle;" transform="matrix(1 0 0 1 559.711 322)">Ultralight</text>
  <text style="stroke:none;fill:black;font-family:sans-serif;font-size:13;text-anchor:middle;" transform="matrix(1 0 0 1 856.422 322)">Thin</text>
  <text style="stroke:none;fill:black;font-family:sans-serif;font-size:13;text-anchor:middle;" transform="matrix(1 0 0 1 1153.13 322)">Light</text>
  <text style="stroke:none;fill:black;font-family:sans-serif;font-size:13;text-anchor:middle;" transform="matrix(1 0 0 1 1449.84 322)">Regular</text>
  <text style="stroke:none;fill:black;font-family:sans-serif;font-size:13;text-anchor:middle;" transform="matrix(1 0 0 1 1746.56 322)">Medium</text>
  <text style="stroke:none;fill:black;font-family:sans-serif;font-size:13;text-anchor:middle;" transform="matrix(1 0 0 1 2043.27 322)">Semibold</text>
  <text style="stroke:none;fill:black;font-family:sans-serif;font-size:13;text-anchor:middle;" transform="matrix(1 0 0 1 2339.98 322)">Bold</text>
  <text style="stroke:none;fill:black;font-family:sans-serif;font-size:13;text-anchor:middle;" transform="matrix(1 0 0 1 2636.69 322)">Heavy</text>
  <text style="stroke:none;fill:black;font-family:sans-serif;font-size:13;text-anchor:middle;" transform="matrix(1 0 0 1 2933.4 322)">Black</text>
  <line style="fill:none;stroke:black;opacity:1;stroke-width:0.5;" x1="263" x2="3036" y1="1903" y2="1903"/>
  <g transform="matrix(1 0 0 1 263 1933)">
   <path d="M9.24805 0.830078C13.5547 0.830078 17.1387-2.74414 17.1387-7.05078C17.1387-11.3574 13.5449-14.9316 9.23828-14.9316C4.94141-14.9316 1.36719-11.3574 1.36719-7.05078C1.36719-2.74414 4.95117 0.830078 9.24805 0.830078ZM9.24805-0.654297C5.70312-0.654297 2.87109-3.49609 2.87109-7.05078C2.87109-10.6055 5.69336-13.4473 9.23828-13.4473C12.793-13.4473 15.6445-10.6055 15.6445-7.05078C15.6445-3.49609 12.8027-0.654297 9.24805-0.654297ZM5.6543-7.05078C5.6543-6.62109 5.95703-6.32812 6.40625-6.32812L8.50586-6.32812L8.50586-4.20898C8.50586-3.76953 8.79883-3.4668 9.22852-3.4668C9.67773-3.4668 9.9707-3.76953 9.9707-4.20898L9.9707-6.32812L12.0898-6.32812C12.5293-6.32812 12.832-6.62109 12.832-7.05078C12.832-7.49023 12.5293-7.79297 12.0898-7.79297L9.9707-7.79297L9.9707-9.90234C9.9707-10.3516 9.67773-10.6543 9.22852-10.6543C8.79883-10.6543 8.50586-10.3516 8.50586-9.90234L8.50586-7.79297L6.40625-7.79297C5.95703-7.79297 5.6543-7.49023 5.6543-7.05078Z"/>
  </g>
  <g transform="matrix(1 0 0 1 281.867 1933)">
   <path d="M11.709 2.91016C17.1582 2.91016 21.6699-1.61133 21.6699-7.05078C21.6699-12.5 17.1484-17.0117 11.6992-17.0117C6.25977-17.0117 1.74805-12.5 1.74805-7.05078C1.74805-1.61133 6.26953 2.91016 11.709 2.91016ZM11.709 1.25C7.09961 1.25 3.41797-2.44141 3.41797-7.05078C3.41797-11.6602 7.08984-15.3516 11.6992-15.3516C16.3086-15.3516 20.0098-11.6602 20.0098-7.05078C20.0098-2.44141 16.3184 1.25 11.709 1.25ZM7.17773-7.05078C7.17773-6.57227 7.50977-6.25 8.00781-6.25L10.8789-6.25L10.8789-3.36914C10.8789-2.88086 11.2109-2.53906 11.6895-2.53906C12.1777-2.53906 12.5195-2.87109 12.5195-3.36914L12.5195-6.25L15.4004-6.25C15.8887-6.25 16.2305-6.57227 16.2305-7.05078C16.2305-7.53906 15.8887-7.88086 15.4004-7.88086L12.5195-7.88086L12.5195-10.752C12.5195-11.25 12.1777-11.5918 11.6895-11.5918C11.2109-11.5918 10.8789-11.25 10.8789-10.752L10.8789-7.88086L8.00781-7.88086C7.50977-7.88086 7.17773-7.53906 7.17773-7.05078Z"/>
  </g>
  <g transform="matrix(1 0 0 1 305.646 1933)">
   <path d="M14.9707 5.66406C21.9336 5.66406 27.6953-0.0976562 27.6953-7.05078C27.6953-14.0137 21.9238-19.7754 14.9609-19.7754C8.00781-19.7754 2.25586-14.0137 2.25586-7.05078C2.25586-0.0976562 8.01758 5.66406 14.9707 5.66406ZM14.9707 3.84766C8.93555 3.84766 4.08203-1.01562 4.08203-7.05078C4.08203-13.0957 8.92578-17.9492 14.9609-17.9492C21.0059-17.9492 25.8691-13.0957 25.8691-7.05078C25.8691-1.01562 21.0156 3.84766 14.9707 3.84766ZM9.19922-7.05078C9.19922-6.5332 9.57031-6.17188 10.1172-6.17188L14.0625-6.17188L14.0625-2.2168C14.0625-1.67969 14.4336-1.29883 14.9512-1.29883C15.4883-1.29883 15.8594-1.66992 15.8594-2.2168L15.8594-6.17188L19.8145-6.17188C20.3516-6.17188 20.7324-6.5332 20.7324-7.05078C20.7324-7.59766 20.3613-7.96875 19.8145-7.96875L15.8594-7.96875L15.8594-11.9141C15.8594-12.4609 15.4883-12.8418 14.9512-12.8418C14.4336-12.8418 14.0625-12.4609 14.0625-11.9141L14.0625-7.96875L10.1172-7.96875C9.57031-7.96875 9.19922-7.59766 9.19922-7.05078Z"/>
  </g>
  <text style="stroke:none;fill:black;font-family:sans-serif;font-size:13;font-weight:bold;" transform="matrix(1 0 0 1 263 1953)">Design Variations</text>
  <text style="stroke:none;fill:black;font-family:sans-serif;font-size:13;" transform="matrix(1 0 0 1 263 1971)">Symbols are supported in up to nine weights and three scales.</text>
  <text style="stroke:none;fill:black;font-family:sans-serif;font-size:13;" transform="matrix(1 0 0 1 263 1989)">For optimal layout with text and other symbols, vertically align</text>
  <text style="stroke:none;fill:black;font-family:sans-serif;font-size:13;" transform="matrix(1 0 0 1 263 2007)">symbols with the adjacent text.</text>
  <line style="fill:none;stroke:#00AEEF;stroke-width:0.5;opacity:1.0;" x1="776" x2="776" y1="1919" y2="1933"/>
  <g transform="matrix(1 0 0 1 776 1933)">
   <path d="M3.31055 0.15625C3.82812 0.15625 4.08203-0.0390625 4.26758-0.585938L5.52734-4.0332L11.2891-4.0332L12.5488-0.585938C12.7344-0.0390625 12.9883 0.15625 13.4961 0.15625C14.0137 0.15625 14.3457-0.15625 14.3457-0.644531C14.3457-0.810547 14.3164-0.966797 14.2383-1.17188L9.6582-13.3691C9.43359-13.9648 9.0332-14.2676 8.4082-14.2676C7.80273-14.2676 7.39258-13.9746 7.17773-13.3789L2.59766-1.16211C2.51953-0.957031 2.49023-0.800781 2.49023-0.634766C2.49023-0.146484 2.80273 0.15625 3.31055 0.15625ZM6.00586-5.51758L8.37891-12.0898L8.42773-12.0898L10.8008-5.51758Z"/>
  </g>
  <line style="fill:none;stroke:#00AEEF;stroke-width:0.5;opacity:1.0;" x1="793.197" x2="793.197" y1="1919" y2="1933"/>
  <text style="stroke:none;fill:black;font-family:sans-serif;font-size:13;font-weight:bold;" transform="matrix(1 0 0 1 776 1953)">Margins</text>
  <text style="stroke:none;fill:black;font-family:sans-serif;font-size:13;" transform="matrix(1 0 0 1 776 1971)">Leading and trailing margins on the left and right side of each symbol</text>
  <text style="stroke:none;fill:black;font-family:sans-serif;font-size:13;" transform="matrix(1 0 0 1 776 1989)">can be adjusted by modifying the x-location of the margin guidelines.</text>
  <text style="stroke:none;fill:black;font-family:sans-serif;font-size:13;" transform="matrix(1 0 0 1 776 2007)">Modifications are automatically applied proportionally to all</text>
  <text style="stroke:none;fill:black;font-family:sans-serif;font-size:13;" transform="matrix(1 0 0 1 776 2025)">scales and weights.</text>
  <g transform="matrix(1 0 0 1 1289 1933)">
   <path d="M2.8418 1.86523L4.54102 3.57422C5.40039 4.44336 6.38672 4.38477 7.31445 3.35938L18.0078-8.42773L17.041-9.4043L6.42578 2.27539C6.07422 2.67578 5.74219 2.77344 5.27344 2.30469L4.10156 1.14258C3.63281 0.683594 3.74023 0.341797 4.14062-0.0195312L15.6152-10.8203L14.6387-11.7871L3.04688-0.898438C2.06055 0.0195312 1.98242 0.996094 2.8418 1.86523ZM9.25781-16.3281C8.83789-15.918 8.80859-15.3418 9.04297-14.9512C9.27734-14.5898 9.73633-14.3555 10.3809-14.5215C11.8457-14.8633 13.3691-14.9219 14.7949-13.9844L14.209-12.5293C13.8672-11.6992 14.043-11.1133 14.5801-10.5664L16.875-8.25195C17.3633-7.76367 17.7734-7.74414 18.3398-7.8418L19.4043-8.03711L20.0684-7.36328L20.0293-6.80664C19.9902-6.30859 20.1172-5.92773 20.6055-5.44922L21.3672-4.70703C21.8457-4.22852 22.4609-4.19922 22.9297-4.66797L25.8398-7.58789C26.3086-8.05664 26.2891-8.65234 25.8105-9.13086L25.0391-9.89258C24.5605-10.3711 24.1895-10.5273 23.7109-10.4883L23.1348-10.4395L22.4902-11.0742L22.7344-12.1973C22.8613-12.7637 22.7051-13.2031 22.1191-13.7891L19.9219-15.9766C16.582-19.2969 12.1484-19.2188 9.25781-16.3281ZM10.752-15.957C13.1836-17.7344 16.4746-17.4316 18.7012-15.2051L21.1328-12.793C21.3672-12.5586 21.4062-12.373 21.3379-12.0312L21.0156-10.5469L22.5195-9.0625L23.5059-9.12109C23.7598-9.13086 23.8379-9.11133 24.0332-8.91602L24.6094-8.33984L22.168-5.89844L21.5918-6.47461C21.3965-6.66992 21.3672-6.74805 21.377-7.01172L21.4453-7.98828L19.9512-9.47266L18.4277-9.21875C18.1055-9.15039 17.959-9.17969 17.7148-9.41406L15.7129-11.416C15.459-11.6504 15.4297-11.8164 15.5859-12.1875L16.4648-14.2773C14.9023-15.7324 12.8711-16.3574 10.8398-15.7617C10.6836-15.7227 10.625-15.8496 10.752-15.957Z"/>
  </g>
  <text style="stroke:none;fill:black;font-family:sans-serif;font-size:13;font-weight:bold;" transform="matrix(1 0 0 1 1289 1953)">Exporting</text>
  <text style="stroke:none;fill:black;font-family:sans-serif;font-size:13;" transform="matrix(1 0 0 1 1289 1971)">Symbols should be outlined when exporting to ensure the</text>
  <text style="stroke:none;fill:black;font-family:sans-serif;font-size:13;" transform="matrix(1 0 0 1 1289 1989)">design is preserved when submitting to Xcode.</text>
  <text id="template-version" style="stroke:none;fill:black;font-family:sans-serif;font-size:13;text-anchor:end;" transform="matrix(1 0 0 1 3036 1933)">Template v.4.0</text>
  <text style="stroke:none;fill:black;font-family:sans-serif;font-size:13;text-anchor:end;" transform="matrix(1 0 0 1 3036 1951)">Requires Xcode 14 or greater</text>
  <text id="descriptive-name" style="stroke:none;fill:black;font-family:sans-serif;font-size:13;text-anchor:end;" transform="matrix(1 0 0 1 3036 1969)">Generated from gearshape</text>
  <text style="stroke:none;fill:black;font-family:sans-serif;font-size:13;text-anchor:end;" transform="matrix(1 0 0 1 3036 1987)">Typeset at 100 points</text>
  <text style="stroke:none;fill:black;font-family:sans-serif;font-size:13;" transform="matrix(1 0 0 1 263 726)">Small</text>
  <text style="stroke:none;fill:black;font-family:sans-serif;font-size:13;" transform="matrix(1 0 0 1 263 1156)">Medium</text>
  <text style="stroke:none;fill:black;font-family:sans-serif;font-size:13;" transform="matrix(1 0 0 1 263 1586)">Large</text>
 </g>
 <g id="Guides">
  <g id="H-reference" style="fill:#27AAE1;stroke:none;" transform="matrix(1 0 0 1 339 696)">
   <path d="M0.993654 0L3.63775 0L29.3281-67.1323L30.0303-67.1323L30.0303-70.459L28.1226-70.459ZM11.6885-24.4799L46.9815-24.4799L46.2315-26.7285L12.4385-26.7285ZM55.1196 0L57.7637 0L30.6382-70.459L29.4326-70.459L29.4326-67.1323Z"/>
  </g>
  <line id="Baseline-S" style="fill:none;stroke:#27AAE1;opacity:1;stroke-width:0.5;" x1="263" x2="3036" y1="696" y2="696"/>
  <line id="Capline-S" style="fill:none;stroke:#27AAE1;opacity:1;stroke-width:0.5;" x1="263" x2="3036" y1="625.541" y2="625.541"/>
  <g id="H-reference" style="fill:#27AAE1;stroke:none;" transform="matrix(1 0 0 1 339 1126)">
   <path d="M0.993654 0L3.63775 0L29.3281-67.1323L30.0303-67.1323L30.0303-70.459L28.1226-70.459ZM11.6885-24.4799L46.9815-24.4799L46.2315-26.7285L12.4385-26.7285ZM55.1196 0L57.7637 0L30.6382-70.459L29.4326-70.459L29.4326-67.1323Z"/>
  </g>
  <line id="Baseline-M" style="fill:none;stroke:#27AAE1;opacity:1;stroke-width:0.5;" x1="263" x2="3036" y1="1126" y2="1126"/>
  <line id="Capline-M" style="fill:none;stroke:#27AAE1;opacity:1;stroke-width:0.5;" x1="263" x2="3036" y1="1055.54" y2="1055.54"/>
  <g id="H-reference" style="fill:#27AAE1;stroke:none;" transform="matrix(1 0 0 1 339 1556)">
   <path d="M0.993654 0L3.63775 0L29.3281-67.1323L30.0303-67.1323L30.0303-70.459L28.1226-70.459ZM11.6885-24.4799L46.9815-24.4799L46.2315-26.7285L12.4385-26.7285ZM55.1196 0L57.7637 0L30.6382-70.459L29.4326-70.459L29.4326-67.1323Z"/>
  </g>
  <line id="Baseline-L" style="fill:none;stroke:#27AAE1;opacity:1;stroke-width:0.5;" x1="263" x2="3036" y1="1556" y2="1556"/>
  <line id="Capline-L" style="fill:none;stroke:#27AAE1;opacity:1;stroke-width:0.5;" x1="263" x2="3036" y1="1485.54" y2="1485.54"/>
  <line id="left-margin-Ultralight-S" style="fill:none;stroke:#00AEEF;stroke-width:0.5;opacity:1.0;" x1="513.745" x2="513.745" y1="600.785" y2="720.121"/>
  <line id="right-margin-Ultralight-S" style="fill:none;stroke:#00AEEF;stroke-width:0.5;opacity:1.0;" x1="605.678" x2="605.678" y1="600.785" y2="720.121"/>
  <line id="left-margin-Regular-S" style="fill:none;stroke:#00AEEF;stroke-width:0.5;opacity:1.0;" x1="1401.68" x2="1401.68" y1="600.785" y2="720.121"/>
  <line id="right-margin-Regular-S" style="fill:none;stroke:#00AEEF;stroke-width:0.5;opacity:1.0;" x1="1498.01" x2="1498.01" y1="600.785" y2="720.121"/>
  <line id="left-margin-Black-S" style="fill:none;stroke:#00AEEF;stroke-width:0.5;opacity:1.0;" x1="2881.98" x2="2881.98" y1="600.785" y2="720.121"/>
  <line id="right-margin-Black-S" style="fill:none;stroke:#00AEEF;stroke-width:0.5;opacity:1.0;" x1="2984.82" x2="2984.82" y1="600.785" y2="720.121"/>
 </g>
 <g id="Symbols">
  <g id="Black-S" transform="matrix(1 0 0 1 2881.98 696)">
   <path class="monochrome-0 SFSymbolsPreview000000" d="M47.4609 9.32617L55.3711 9.32617C59.6191 9.32617 63.1348 6.54297 64.0625 2.53906L65.1855-2.29492L65.1855-2.29492L69.4336 0.292969C72.998 2.44141 77.3926 1.85547 80.3223-1.17188L85.791-6.5918C88.8184-9.76562 89.3066-14.0625 87.1582-17.5293L84.5703-21.6797L84.5703-21.6797L89.3066-22.8516C93.3105-23.877 95.9961-27.3438 95.9961-31.543L95.9961-38.9648C95.9961-43.1641 93.3105-46.6797 89.3066-47.6562L84.5703-48.8281L84.5703-48.8281L87.1582-52.9785C89.3555-56.4453 88.8184-60.7422 85.791-63.916L80.3223-69.3359C77.3926-72.3633 72.998-72.998 69.4336-70.8008L65.1855-68.2129L65.1855-68.2129L64.0625-73.0469C63.1348-77.0508 59.6191-79.834 55.3711-79.834L47.4609-79.834C43.2129-79.834 39.6973-77.002 38.7695-73.0469L37.6465-68.2129L37.6465-68.2129L33.3984-70.8008C29.834-72.9492 25.4395-72.3633 22.5098-69.3359L17.041-63.916C14.0137-60.7422 13.4766-56.4453 15.6738-52.9785L18.2617-48.8281L18.2617-48.8281L13.5254-47.6562C9.47266-46.6309 6.83594-43.1641 6.83594-38.9648L6.83594-31.543C6.83594-27.3438 9.52148-23.8281 13.5254-22.8516L18.2617-21.6797L18.2617-21.6797L15.6738-17.5293C13.4766-14.0625 14.0137-9.76562 17.041-6.5918L22.5098-1.17188C25.4395 1.85547 29.834 2.44141 33.3984 0.292969L37.6465-2.29492L37.6465-2.29492L38.7695 2.53906C39.6973 6.54297 43.2129 9.32617 47.4609 9.32617ZM50.0977-2.39258C49.4629-2.39258 49.2188-2.73438 49.1211-3.22266L47.0215-12.3047C44.1406-12.7441 41.1133-14.0137 38.1836-15.9668L30.2246-11.084C29.7852-10.791 29.3457-10.791 28.9551-11.1816L27.0508-13.0371C26.6113-13.4766 26.709-13.916 26.9531-14.3066L31.9336-22.3145C30.0293-25.2441 28.8574-28.125 28.418-30.957L19.3359-33.0566C18.8477-33.1543 18.5059-33.3984 18.5059-34.0332L18.5059-36.4746C18.5059-37.1094 18.8477-37.3535 19.3359-37.4512L28.418-39.5508C28.9551-42.334 29.9805-45.3125 31.9336-48.1934L26.9531-56.2012C26.709-56.5918 26.6113-57.0312 27.0508-57.4707L28.9551-59.3262C29.3457-59.7168 29.7852-59.7168 30.2246-59.4238L38.1836-54.541C40.332-56.1523 43.8477-57.6172 46.9727-58.2031L49.1211-67.2852C49.2188-67.7734 49.4629-68.1152 50.0977-68.1152L52.7344-68.1152C53.3691-68.1152 53.6133-67.7734 53.7109-67.2852L55.8594-58.2031C58.8867-57.666 61.9141-56.3965 64.6484-54.541L72.5098-59.3262C72.9492-59.6191 73.3398-59.668 73.7793-59.2285L75.6836-57.373C76.123-56.9336 76.0254-56.4941 75.7812-56.1035L70.8984-48.1934C72.8027-45.3613 73.877-42.334 74.3652-39.5996L83.4961-37.4512C83.9844-37.3535 84.3262-37.1094 84.3262-36.4746L84.3262-34.0332C84.3262-33.3984 83.9844-33.1543 83.4961-33.0566L74.3652-30.9082C73.9258-28.1738 72.7539-25.0977 70.8984-22.3145L75.7812-14.4043C76.0254-14.0137 76.123-13.5742 75.6836-13.1348L73.7793-11.2793C73.3398-10.8398 72.9492-10.8887 72.5098-11.1816L64.6973-15.9668C61.6211-14.0137 59.1797-12.8906 55.8594-12.3047L53.7109-3.22266C53.6133-2.73438 53.3691-2.39258 52.7344-2.39258ZM51.416-21.0449C59.1797-21.0449 65.5762-27.4414 65.5762-35.2539C65.5762-43.0176 59.1797-49.3652 51.416-49.3652C43.6035-49.3652 37.207-43.0176 37.207-35.2539C37.207-27.3926 43.6035-21.0449 51.416-21.0449ZM51.416-30.7129C48.9258-30.7129 46.9238-32.7637 46.9238-35.2539C46.9238-37.6953 48.9746-39.6973 51.416-39.6973C53.8086-39.6973 55.8105-37.6465 55.8105-35.2539C55.8105-32.7637 53.8086-30.7129 51.416-30.7129Z"/>
  </g>
  <g id="Regular-S" transform="matrix(1 0 0 1 1401.68 696)">
   <path class="monochrome-0 SFSymbolsPreview000000" d="M44.2871 6.00586L52.002 6.00586C55.127 6.00586 57.5684 4.10156 58.3008 1.17188L59.9121-5.85938L60.791-6.15234L66.8457-2.39258C69.4824-0.78125 72.5586-1.17188 74.7559-3.41797L80.127-8.74023C82.3242-10.9375 82.7637-14.0625 81.1035-16.6016L77.2949-22.7051L77.5879-23.4375L84.6191-25.0488C87.5488-25.7812 89.502-28.2715 89.502-31.3477L89.502-38.8672C89.502-41.9434 87.5977-44.4336 84.6191-45.166L77.6855-46.875L77.3438-47.6562L81.1523-53.7598C82.8125-56.3477 82.373-59.375 80.1758-61.6699L74.8047-66.9922C72.6562-69.1895 69.5801-69.5801 66.9434-68.0176L60.8398-64.3066L59.9121-64.6484L58.3008-71.6797C57.5684-74.6094 55.127-76.5137 52.002-76.5137L44.2871-76.5137C41.1621-76.5137 38.7695-74.6094 38.0371-71.6797L36.4258-64.6484L35.4492-64.3066L29.3457-68.0176C26.7578-69.5801 23.6816-69.1895 21.4844-66.9922L16.1621-61.6699C13.9648-59.375 13.5254-56.3477 15.1855-53.7598L18.9453-47.6562L18.6035-46.875L11.6699-45.166C8.74023-44.4336 6.83594-41.9434 6.83594-38.8672L6.83594-31.3477C6.83594-28.2715 8.78906-25.7812 11.6699-25.0488L18.7012-23.4375L18.9941-22.7051L15.2344-16.6016C13.5742-14.0625 14.0137-10.9375 16.2109-8.74023L21.5332-3.41797C23.7305-1.17188 26.8555-0.78125 29.4434-2.39258L35.5469-6.15234L36.4258-5.85938L38.0371 1.17188C38.7695 4.10156 41.1621 6.00586 44.2871 6.00586ZM44.9707-0.78125C44.4824-0.78125 44.2383-0.976562 44.1895-1.41602L41.7969-10.9863C39.3066-11.6211 37.0605-12.5488 35.3516-13.7207L26.9043-8.49609C26.5625-8.30078 26.2207-8.34961 25.8789-8.64258L21.4844-13.0859C21.1426-13.3789 21.1426-13.7207 21.3867-14.1113L26.5137-22.5098C25.5859-24.1699 24.5117-26.416 23.877-28.9062L14.2578-31.25C13.8184-31.2988 13.623-31.543 13.623-32.0312L13.623-38.2812C13.623-38.8184 13.7695-38.9648 14.2578-39.1113L23.8281-41.4062C24.4629-44.0918 25.7324-46.4355 26.416-47.9004L21.3379-56.25C21.0449-56.6895 21.0449-57.0312 21.3867-57.373L25.8301-61.7188C26.1719-62.0117 26.416-62.1094 26.9043-61.8652L35.2539-56.7871C36.9629-57.8125 39.4043-58.8379 41.8457-59.5215L44.1895-69.0918C44.2383-69.5312 44.4824-69.7266 44.9707-69.7266L51.3672-69.7266C51.8555-69.7266 52.0996-69.5312 52.1484-69.0918L54.4922-59.4238C57.0312-58.7891 59.2285-57.7637 60.9863-56.7383L69.4336-61.8652C69.873-62.1094 70.1172-62.0117 70.5078-61.7188L74.9512-57.373C75.2441-57.0312 75.293-56.6895 75-56.25L69.873-47.9004C70.6055-46.4355 71.8262-44.0918 72.4609-41.4062L82.0801-39.1113C82.5684-38.9648 82.666-38.8184 82.666-38.2812L82.666-32.0312C82.666-31.543 82.5195-31.2988 82.0801-31.25L72.4121-28.9062C71.8262-26.416 70.752-24.1699 69.7754-22.5098L74.9512-14.1113C75.1953-13.7207 75.1953-13.3789 74.8535-13.0859L70.459-8.64258C70.0684-8.34961 69.7266-8.30078 69.4336-8.49609L60.9375-13.7207C59.2773-12.5488 56.9824-11.6211 54.4922-10.9863L52.1484-1.41602C52.0996-0.976562 51.8555-0.78125 51.3672-0.78125ZM48.1445-20.6543C56.1523-20.6543 62.7441-27.1973 62.7441-35.2539C62.7441-43.2129 56.1523-49.7559 48.1445-49.7559C40.1367-49.7559 33.5449-43.2129 33.5449-35.2539C33.5449-27.2461 40.1367-20.6543 48.1445-20.6543ZM48.1445-27.3926C43.8477-27.3926 40.3809-30.9082 40.3809-35.2539C40.3809-39.502 43.8477-43.0176 48.1445-43.0176C52.3438-43.0176 55.8594-39.502 55.8594-35.2539C55.8594-30.957 52.3438-27.3926 48.1445-27.3926Z"/>
  </g>
  <g id="Ultralight-S" transform="matrix(1 0 0 1 513.745 696)">
   <path class="monochrome-0 SFSymbolsPreview000000" d="M42.1074 3.91701L49.8223 3.91701C52.0845 3.91701 53.5269 2.69386 54.0777 0.354499L55.8706-7.40331L58.7476-8.46824L65.4834-4.20897C67.4844-2.91551 69.3799-3.1245 70.9868-4.73485L76.4033-10.1479C78.0557-11.7095 78.2681-13.6538 76.9712-15.6934L72.7085-22.3872L73.7735-25.2993L81.5313-27.0923C83.8706-27.6431 85.0972-29.0889 85.0972-31.3477L85.0972-39.0488C85.0972-41.3076 83.8741-42.7534 81.5313-43.3042L73.7803-45.104L72.712-48.0195L76.9746-54.7134C78.2715-56.7563 78.0591-58.6939 76.4068-60.2622L70.9903-65.6753C69.3867-67.2822 67.4912-67.4912 65.4902-66.2012L58.751-61.9453L55.8706-63.0137L54.0777-70.7715C53.5269-73.1109 52.0845-74.334 49.8223-74.334L42.1074-74.334C39.8452-74.334 38.4063-73.1109 37.8555-70.7715L36.0625-63.0137L33.1333-61.9453L26.3941-66.2012C24.3965-67.4912 22.4556-67.2822 20.894-65.6753L15.481-60.2622C13.8286-58.6939 13.6162-56.7563 14.9131-54.7134L19.1724-48.0195L18.104-45.104L10.3984-43.3042C8.05909-42.7534 6.83594-41.3076 6.83594-39.0488L6.83594-31.3477C6.83594-29.0889 8.06251-27.6431 10.3984-27.0923L18.1108-25.2993L19.1758-22.3872L14.9165-15.6934C13.6196-13.6538 13.832-11.7095 15.4844-10.1479L20.8975-4.73485C22.459-3.1245 24.4033-2.91551 26.4009-4.20897L33.1402-8.46824L36.0625-7.40331L37.8555 0.354499C38.4063 2.69386 39.8452 3.91701 42.1074 3.91701ZM42.4278 1.71629C41.0313 1.71629 40.2422 1.02147 39.9663-0.235361L37.937-9.26076C36.3096-9.75929 34.563-10.4146 33.1265-11.0415L25.3604-6.13478C24.2466-5.39455 23.1782-5.5342 22.1553-6.50832L17.2159-11.4512C16.2383-12.4707 16.1475-13.4482 16.8911-14.6108L21.7911-22.4189C21.2266-23.8066 20.5157-25.5532 20.0171-27.1807L10.9883-29.2066C9.73148-29.4824 9.03666-30.2715 9.03666-31.668L9.03666-38.7353C9.03666-40.1352 9.72806-40.9175 10.9883-41.2002L20.0137-43.2226C20.5122-44.8638 21.2369-46.6172 21.7842-47.9912L16.8877-55.7959C16.1407-56.9619 16.2315-57.9394 17.209-58.9624L22.1519-63.8984C23.1748-64.8725 24.2363-65.0156 25.3604-64.272L33.1196-59.3755C34.5562-59.9922 36.3164-60.6543 37.9405-61.1562L39.9663-70.1816C40.2422-71.4385 41.0313-72.1333 42.4278-72.1333L49.5054-72.1333C50.9473-72.1333 51.6909-71.5293 51.9668-70.1816L53.9927-61.1494C55.7144-60.6509 57.3667-59.9888 58.7612-59.372L66.5274-64.272C67.648-65.0156 68.7095-64.8725 69.7358-63.8984L74.6787-58.9624C75.6528-57.9394 75.7471-56.9619 75-55.7959L70.1001-47.9912C70.7417-46.6172 71.4175-44.9092 71.916-43.2226L80.8994-41.2002C82.2051-40.9175 82.8931-40.1352 82.8931-38.7353L82.8931-31.668C82.8931-30.2715 82.2017-29.4824 80.8994-29.2066L71.9126-27.1807C71.4175-25.5078 70.752-23.8066 70.0933-22.4189L74.9966-14.6108C75.7402-13.4482 75.6494-12.4707 74.6719-11.4512L69.7324-6.50832C68.7061-5.5342 67.6377-5.39455 66.5274-6.13478L58.7578-11.0415C57.3701-10.4146 55.7109-9.75929 53.9927-9.26076L51.9668-0.235361C51.6909 1.11229 50.9473 1.71629 49.5054 1.71629ZM46.0103-20.5635C54.0181-20.5635 60.6553-27.1973 60.6553-35.2539C60.6553-43.2129 54.0181-49.8467 46.0103-49.8467C38.0025-49.8467 31.3198-43.2129 31.3198-35.2539C31.3198-27.2007 37.957-20.5635 46.0103-20.5635ZM46.0103-22.7608C39.2159-22.7608 33.524-28.4561 33.524-35.2539C33.524-41.9541 39.2613-47.6494 46.0103-47.6494C52.7524-47.6494 58.4477-41.9541 58.4477-35.2539C58.4477-28.4595 52.7524-22.7608 46.0103-22.7608Z"/>
  </g>
 </g>
</svg>
