<?xml version="1.0" encoding="UTF-8" standalone="no"?>
<!DOCTYPE svg PUBLIC "-//W3C//DTD SVG 1.1//EN" "http://www.w3.org/Graphics/SVG/1.1/DTD/svg11.dtd">
<svg width="100%" height="100%" viewBox="0 0 1024 1024" version="1.1" xmlns="http://www.w3.org/2000/svg" xmlns:xlink="http://www.w3.org/1999/xlink" xml:space="preserve" xmlns:serif="http://www.serif.com/" style="fill-rule:evenodd;clip-rule:evenodd;stroke-linejoin:round;stroke-miterlimit:2;">
    <g transform="matrix(6.86311,0,0,6.86311,100.213,103.238)">
        <g id="Template---Icons---App">
            <g>
                <path d="M60,99.119L60,48.619L19.831,34.119C19.831,34.119 19.443,34.939 19.254,35.682C19.093,36.313 19,37.329 19,37.329L19,79.137C19,79.137 19.095,80.261 19.57,81.29C19.95,82.113 20.394,82.62 20.394,82.62C20.394,82.62 20.553,82.837 21.407,83.57C22.146,84.204 23.181,84.647 23.181,84.647L56,98.094C56,98.094 56.767,98.449 57.28,98.619C58.789,99.119 60,99.119 60,99.119Z" style="fill:url(#_Radial1);fill-rule:nonzero;"/>
            </g>
        </g>
    </g>
    <defs>
        <radialGradient id="_Radial1" cx="0" cy="0" r="1" gradientUnits="userSpaceOnUse" gradientTransform="matrix(-26.5006,100.5,-156.213,-41.1917,54,43)"><stop offset="0" style="stop-color:rgb(169,62,0);stop-opacity:1"/><stop offset="1" style="stop-color:rgb(231,101,0);stop-opacity:1"/></radialGradient>
    </defs>
</svg>
