<?xml version="1.0" encoding="UTF-8" standalone="no"?>
<!DOCTYPE svg PUBLIC "-//W3C//DTD SVG 1.1//EN" "http://www.w3.org/Graphics/SVG/1.1/DTD/svg11.dtd">
<svg width="100%" height="100%" viewBox="0 0 79 79" version="1.1" xmlns="http://www.w3.org/2000/svg" xmlns:xlink="http://www.w3.org/1999/xlink" xml:space="preserve" xmlns:serif="http://www.serif.com/" style="fill-rule:evenodd;clip-rule:evenodd;stroke-linejoin:round;stroke-miterlimit:2;">
    <g transform="matrix(1,0,0,1,-6.83594,74.6582)">
        <g id="Regular-S">
            <path d="M46.24,4.15C67.773,4.15 85.693,-13.721 85.693,-35.254C85.693,-56.787 67.725,-74.658 46.191,-74.658C24.707,-74.658 6.836,-56.787 6.836,-35.254C6.836,-13.721 24.756,4.15 46.24,4.15Z" style="fill:rgb(255,175,0);fill-rule:nonzero;"/>
            <path d="M47.803,-12.793L47.803,-33.984L66.992,-45.117C67.139,-44.58 67.188,-43.994 67.188,-43.359L67.188,-27.637C67.188,-24.365 65.967,-23.291 64.063,-22.07L48.145,-12.94C48.047,-12.891 47.949,-12.793 47.803,-12.793ZM44.727,-12.793C44.58,-12.793 44.482,-12.891 44.336,-12.94L28.467,-22.07C26.514,-23.291 25.391,-24.365 25.391,-27.637L25.391,-43.359C25.391,-43.994 25.391,-44.58 25.488,-45.117L44.727,-33.984L44.727,-12.793ZM46.24,-36.67L27.002,-47.705C27.295,-47.998 27.734,-48.291 28.223,-48.535L35.596,-52.783L54.883,-41.602L46.24,-36.67ZM58.008,-43.359L38.574,-54.492L42.188,-56.543C43.555,-57.373 44.922,-57.715 46.24,-57.715C47.607,-57.715 48.975,-57.373 50.342,-56.543L64.307,-48.535C64.746,-48.291 65.186,-47.998 65.527,-47.705L58.008,-43.359Z" style="fill-rule:nonzero;"/>
        </g>
    </g>
</svg>
