<svg clip-rule="evenodd" fill-rule="evenodd" stroke-linejoin="round" stroke-miterlimit="2" viewBox="0 0 79 79" xmlns="http://www.w3.org/2000/svg"><g fill-rule="nonzero" transform="translate(-6.83594 74.6582)"><path d="m46.24 4.15c21.533 0 39.453-17.871 39.453-39.404s-17.968-39.404-39.502-39.404c-21.484 0-39.355 17.871-39.355 39.404s17.92 39.404 39.404 39.404z" fill="#c33010"/><path d="m47.803-12.793v-21.191l19.189-11.133c.147.537.196 1.123.196 1.758v15.722c0 3.272-1.221 4.346-3.125 5.567l-15.918 9.13c-.098.049-.196.147-.342.147zm-3.076 0c-.147 0-.245-.098-.391-.147l-15.869-9.13c-1.953-1.221-3.076-2.295-3.076-5.567v-15.722c0-.635 0-1.221.097-1.758l19.239 11.133zm1.513-23.877-19.238-11.035c.293-.293.732-.586 1.221-.83l7.373-4.248 19.287 11.181zm11.768-6.689-19.434-11.133 3.614-2.051c1.367-.83 2.734-1.172 4.052-1.172 1.367 0 2.735.342 4.102 1.172l13.965 8.008c.439.244.879.537 1.22.83z" fill="#fff"/></g></svg>